<?xml version="1.0" standalone="no"?>
<!DOCTYPE svg PUBLIC "-//W3C//DTD SVG 20010904//EN"
 "http://www.w3.org/TR/2001/REC-SVG-20010904/DTD/svg10.dtd">
<svg version="1.0" xmlns="http://www.w3.org/2000/svg"
 width="1280.000000pt" height="1810.000000pt" viewBox="0 0 1280.000000 1810.000000"
 preserveAspectRatio="xMidYMid meet">

<g transform="translate(0.000000,1810.000000) scale(0.100000,-0.100000)"
fill="#000000" stroke="none">
<path d="M6405 13380 l-40 -5 -5 -168 -5 -167 -53 69 c-75 99 -73 98 -124 59
-24 -18 -52 -42 -64 -54 -11 -11 -30 -27 -43 -36 -27 -19 -23 -30 44 -118 23
-30 69 -96 104 -147 l62 -91 -1 -503 c0 -276 -3 -505 -6 -510 -3 -5 -6 -529
-7 -1166 -1 -637 -6 -1164 -11 -1172 -6 -10 -27 5 -85 62 -42 41 -144 137
-227 213 -630 580 -1202 1142 -1272 1248 -45 70 -50 109 -22 165 16 32 151
173 425 446 220 220 463 472 540 560 76 88 167 189 201 225 34 36 80 95 103
130 41 63 42 65 22 78 -11 8 -30 22 -42 33 -12 10 -30 19 -39 19 -9 0 -27 11
-40 25 -39 42 -8 71 -354 -322 -76 -87 -324 -342 -551 -568 -268 -267 -426
-432 -453 -474 -105 -160 -94 -315 35 -484 64 -84 543 -568 778 -785 105 -97
258 -240 340 -317 83 -77 224 -207 314 -290 167 -153 237 -230 247 -271 10
-38 -49 -107 -336 -399 -232 -236 -604 -631 -1074 -1139 -226 -245 -297 -343
-330 -455 -30 -102 -21 -149 53 -271 35 -58 107 -138 316 -350 149 -151 354
-367 455 -480 102 -112 250 -274 329 -358 l145 -154 -2 -96 c-1 -56 4 -123 12
-157 7 -33 25 -109 40 -170 33 -139 45 -302 50 -670 3 -244 7 -304 24 -377 11
-48 24 -93 28 -100 15 -23 22 58 13 150 -5 48 -9 265 -8 482 0 366 -4 550 -16
739 l-5 75 30 -29 c16 -15 27 -32 24 -37 -3 -4 -5 -44 -5 -87 0 -92 31 -197
86 -297 37 -66 55 -148 55 -257 0 -111 34 -165 91 -145 50 17 59 83 37 259
l-12 96 32 67 c18 38 32 76 32 87 0 24 13 31 41 21 20 -8 23 -16 25 -68 1 -32
13 -120 27 -194 14 -74 34 -175 43 -225 9 -49 18 -139 20 -199 2 -61 10 -126
18 -150 8 -22 17 -75 21 -116 3 -41 12 -100 21 -133 11 -42 14 -99 12 -208 -2
-141 -1 -150 19 -170 41 -41 63 -7 58 89 -12 242 -19 310 -36 345 -16 35 -17
50 -8 153 7 77 6 159 -1 252 -14 186 -12 360 4 460 8 52 10 97 5 120 -4 20 -7
37 -6 38 1 1 22 10 47 21 75 33 193 136 436 378 l231 231 6 -71 c6 -76 53
-221 88 -269 21 -28 21 -34 13 -185 -12 -210 -8 -350 16 -508 29 -191 60 -263
113 -263 9 0 19 18 26 45 17 68 25 424 12 530 -6 50 -14 142 -17 205 -8 136 8
217 64 320 34 65 34 66 28 160 -5 80 -27 210 -52 307 -5 19 30 61 207 250 398
424 507 552 583 686 81 142 94 235 43 304 -147 201 -154 208 -662 693 -260
248 -596 588 -807 816 -143 155 -217 292 -218 400 0 143 108 269 725 844 121
113 298 279 393 369 162 153 173 162 168 130 -32 -192 -33 -308 -5 -455 11
-60 24 -158 29 -219 9 -106 17 -184 40 -385 12 -96 26 -140 46 -147 28 -9 31
116 10 336 -8 80 -17 313 -21 516 -3 204 -10 390 -15 415 l-8 45 92 95 c157
163 221 259 252 382 30 117 -4 219 -121 365 -93 116 -345 373 -520 532 -82 74
-264 241 -403 371 -140 129 -287 265 -328 303 l-75 67 -55 -57 c-68 -72 -88
-107 -75 -131 15 -29 458 -446 745 -703 187 -167 492 -482 552 -570 35 -50 48
-79 47 -103 -1 -38 -32 -103 -76 -161 -60 -78 -337 -352 -702 -694 -444 -415
-723 -692 -790 -783 -27 -38 -52 -68 -55 -68 -8 0 -5 1699 5 2609 l8 753 22
27 c43 51 153 217 180 270 26 52 26 55 9 68 -10 7 -23 13 -30 13 -6 0 -17 7
-24 15 -7 8 -19 15 -28 15 -8 0 -30 11 -48 25 -18 14 -37 25 -42 25 -5 0 -29
-30 -53 -67 l-44 -67 -5 171 c-3 94 -7 173 -10 175 -3 2 -23 1 -45 -2z m-25
-4110 c0 -5 -5 -10 -11 -10 -5 0 -7 5 -4 10 3 6 8 10 11 10 2 0 4 -4 4 -10z
m103 -37 c19 -39 17 -40 -35 -18 -15 6 -17 -1 -15 -59 1 -40 -4 -71 -11 -78
-17 -17 -15 -28 6 -28 14 -1 14 -3 -5 -19 -13 -11 -23 -24 -23 -30 0 -16 -7
-14 -30 9 l-20 20 33 1 c30 1 29 2 -13 13 -28 7 -46 18 -48 29 -2 9 -9 17 -15
17 -7 0 -6 4 2 9 12 8 13 15 4 34 -7 14 -9 34 -6 45 6 23 55 50 61 33 6 -19
22 -12 32 14 6 16 14 23 25 19 10 -4 15 0 15 10 0 28 24 17 43 -21z m-19 -128
c-4 -8 -8 -15 -10 -15 -2 0 -4 7 -4 15 0 8 4 15 10 15 5 0 7 -7 4 -15z m-156
-60 c-3 -3 -9 2 -12 12 -6 14 -5 15 5 6 7 -7 10 -15 7 -18z m244 -358 c25 -40
67 -97 93 -127 122 -143 619 -651 861 -880 371 -351 522 -503 578 -583 l48
-68 -22 -42 c-57 -110 -192 -271 -526 -627 -414 -442 -1043 -1070 -1072 -1070
-4 0 -5 73 -3 162 4 185 -17 2976 -24 3198 -4 117 -2 141 8 127 6 -11 33 -51
59 -90z m-301 -524 c0 -313 2 -576 4 -587 8 -42 15 -2079 8 -2175 l-8 -104
-210 200 c-203 194 -316 312 -665 698 -90 99 -276 295 -415 435 -175 178 -259
271 -279 308 l-28 53 26 52 c37 77 109 161 384 456 136 146 345 371 465 500
240 258 698 729 710 730 4 1 7 -254 8 -566z"/>
<path d="M7421 3928 c-37 -156 -63 -216 -121 -281 -65 -74 -72 -144 -21 -216
36 -50 85 -74 139 -68 38 4 53 12 83 45 66 70 74 159 25 278 -14 33 -37 108
-51 165 -15 57 -30 108 -35 112 -4 5 -13 -11 -19 -35z m11 -303 c-3 -17 0 -25
10 -25 24 0 40 -46 26 -73 -6 -12 -14 -28 -18 -36 -3 -8 -12 -17 -20 -19 -8
-3 -10 0 -5 7 4 8 -1 14 -13 18 -11 2 -23 14 -26 26 -6 23 4 40 11 20 9 -26
19 -12 15 22 -5 41 -17 46 -26 10 -4 -14 -11 -25 -17 -25 -6 0 -7 -5 -3 -12 4
-7 3 -8 -4 -4 -12 7 -5 36 9 36 5 0 9 6 9 13 0 19 39 79 49 73 4 -3 6 -17 3
-31z"/>
</g>
</svg>
